<svg xmlns="http://www.w3.org/2000/svg" viewBox="0 0 1180 610" width="100%" height="100%" fill="none">
  <defs>
    <!-- Background Blur Filter -->
    <filter id="glassBlur" x="-10%" y="-10%" width="120%" height="120%">
      <feDropShadow dx="0" dy="16" stdDeviation="24" flood-color="#000000" flood-opacity="0.6"/>
    </filter>

    <!-- Glowing Effects -->
    <filter id="asciiGlow" x="-20%" y="-20%" width="140%" height="140%">
      <feGaussianBlur stdDeviation="5" result="blur" />
      <feMerge>
        <feMergeNode in="blur" />
        <feMergeNode in="SourceGraphic" />
      </feMerge>
    </filter>

    <filter id="pillGlow" x="-20%" y="-20%" width="140%" height="140%">
      <feGaussianBlur stdDeviation="3" result="blur" />
      <feMerge>
        <feMergeNode in="blur" />
        <feMergeNode in="SourceGraphic" />
      </feMerge>
    </filter>

    <!-- Noise Texture -->
    <filter id="noiseFilter">
      <feTurbulence type="fractalNoise" baseFrequency="0.75" numOctaves="3" stitchTiles="stitch" result="noise" />
      <feColorMatrix type="matrix" values="1 0 0 0 0  0 1 0 0 0  0 0 1 0 0  0 0 0 0.03 0" />
    </filter>

    <!-- Shifting Gradient for Border -->
    <linearGradient id="borderGrad" x1="0%" y1="0%" x2="100%" y2="100%">
      <stop offset="0%" stop-color="#7C3AED">
        <animate attributeName="stop-color" values="#7C3AED; #22D3EE; #10B981; #7C3AED" dur="10s" repeatCount="indefinite"/>
      </stop>
      <stop offset="50%" stop-color="#22D3EE">
        <animate attributeName="stop-color" values="#22D3EE; #10B981; #7C3AED; #22D3EE" dur="10s" repeatCount="indefinite"/>
      </stop>
      <stop offset="100%" stop-color="#10B981">
        <animate attributeName="stop-color" values="#10B981; #7C3AED; #22D3EE; #10B981" dur="10s" repeatCount="indefinite"/>
      </stop>
    </linearGradient>

    <!-- Shifting Gradient for ASCII -->
    <linearGradient id="asciiGrad" x1="0%" y1="0%" x2="100%" y2="100%">
      <stop offset="0%" stop-color="#22D3EE">
        <animate attributeName="stop-color" values="#22D3EE; #7C3AED; #22D3EE" dur="8s" repeatCount="indefinite"/>
      </stop>
      <stop offset="100%" stop-color="#7C3AED">
        <animate attributeName="stop-color" values="#7C3AED; #10B981; #7C3AED" dur="8s" repeatCount="indefinite"/>
      </stop>
    </linearGradient>

    <!-- Scanline Gradients -->
    <linearGradient id="scanlineGrad" x1="0%" y1="0%" x2="0%" y2="100%">
      <stop offset="0%" stop-color="#22D3EE" stop-opacity="0"/>
      <stop offset="50%" stop-color="#22D3EE" stop-opacity="0.08"/>
      <stop offset="100%" stop-color="#22D3EE" stop-opacity="0"/>
    </linearGradient>

    <!-- Panel Clips -->
    <clipPath id="leftPanelClip"><rect x="40" y="40" width="410" height="530" rx="16"/></clipPath>
    <clipPath id="rightPanelClip"><rect x="480" y="40" width="660" height="530" rx="16"/></clipPath>

    <!-- ASCII Typing ClipPath (Line-by-line reveal via height) -->
    <clipPath id="asciiClip">
      <rect x="50" y="130" width="390" height="0">
        <animate attributeName="height" values="0; 15; 30; 45; 60; 75; 90; 105; 120; 135; 150; 165; 180; 195; 210; 225; 240; 255; 270; 285; 300; 315; 330; 345; 370"
                 keyTimes="0; 0.04; 0.08; 0.12; 0.16; 0.20; 0.24; 0.28; 0.32; 0.36; 0.40; 0.44; 0.48; 0.52; 0.56; 0.60; 0.64; 0.68; 0.72; 0.76; 0.80; 0.84; 0.88; 0.92; 1"
                 dur="2.4s" begin="0.6s" fill="freeze" calcMode="discrete"/>
      </rect>
    </clipPath>

    <!-- Terminal Text Typing ClipPaths (Row-by-row) -->
    <clipPath id="greetingClip">
      <rect x="520" y="110" width="0" height="40">
        <animate attributeName="width" values="0; 280" dur="1.2s" begin="0.4s" fill="freeze"/>
      </rect>
    </clipPath>

    <clipPath id="role1Clip"><rect x="545" y="165" width="0" height="30"><animate attributeName="width" values="0; 200; 200; 0; 0" keyTimes="0; 0.05; 0.15; 0.175; 1" dur="20s" repeatCount="indefinite"/></rect></clipPath>
    <clipPath id="role2Clip"><rect x="545" y="165" width="0" height="30"><animate attributeName="width" values="0; 0; 220; 220; 0; 0" keyTimes="0; 0.2; 0.25; 0.35; 0.375; 1" dur="20s" repeatCount="indefinite"/></rect></clipPath>
    <clipPath id="role3Clip"><rect x="545" y="165" width="0" height="30"><animate attributeName="width" values="0; 0; 260; 260; 0; 0" keyTimes="0; 0.4; 0.45; 0.55; 0.575; 1" dur="20s" repeatCount="indefinite"/></rect></clipPath>
    <clipPath id="role4Clip"><rect x="545" y="165" width="0" height="30"><animate attributeName="width" values="0; 0; 130; 130; 0; 0" keyTimes="0; 0.6; 0.65; 0.75; 0.775; 1" dur="20s" repeatCount="indefinite"/></rect></clipPath>
    <clipPath id="role5Clip"><rect x="545" y="165" width="0" height="30"><animate attributeName="width" values="0; 0; 150; 150; 0; 0" keyTimes="0; 0.8; 0.85; 0.95; 0.975; 1" dur="20s" repeatCount="indefinite"/></rect></clipPath>
  </defs>

  <style>
    .font-mono {
      font-family: 'Fira Code', 'JetBrains Mono', 'SF Mono', Monaco, Consolas, 'Courier New', monospace;
    }
    .font-sans {
      font-family: -apple-system, BlinkMacSystemFont, 'Segoe UI', Roboto, 'Helvetica Neue', Arial, sans-serif;
    }
    .social-icon, .pill {
      transform-box: fill-box;
      transform-origin: center;
      transition: transform 0.2s cubic-bezier(0.4, 0, 0.2, 1), filter 0.2s ease, stroke 0.2s ease, fill 0.2s ease;
    }
    .social-icon:hover {
      transform: scale(1.15);
      fill: #22D3EE !important;
      filter: drop-shadow(0 0 8px rgba(34, 211, 238, 0.6));
    }
    .pill:hover {
      transform: scale(1.05);
      stroke: #22D3EE !important;
      filter: drop-shadow(0 0 8px rgba(34, 211, 238, 0.3));
    }
  </style>

  <!-- Canvas Background -->
  <rect width="1180" height="610" rx="24" fill="#030712"/>

  <!-- Ambient Glow Circles (Slowly Pulsing) -->
  <circle cx="200" cy="150" r="180" fill="#7C3AED" opacity="0.15">
    <animate attributeName="r" values="180; 210; 180" dur="8s" repeatCount="indefinite"/>
    <animate attributeName="opacity" values="0.15; 0.25; 0.15" dur="8s" repeatCount="indefinite"/>
  </circle>
  <circle cx="950" cy="450" r="220" fill="#22D3EE" opacity="0.12">
    <animate attributeName="r" values="220; 250; 220" dur="10s" repeatCount="indefinite"/>
    <animate attributeName="opacity" values="0.12; 0.22; 0.12" dur="10s" repeatCount="indefinite"/>
  </circle>
  <circle cx="600" cy="300" r="150" fill="#10B981" opacity="0.08">
    <animate attributeName="r" values="150; 180; 150" dur="9s" repeatCount="indefinite"/>
    <animate attributeName="opacity" values="0.08; 0.16; 0.08" dur="9s" repeatCount="indefinite"/>
  </circle>

  <!-- Noise Overlay -->
  <rect width="1180" height="610" rx="24" filter="url(#noiseFilter)" pointer-events="none"/>

  <!-- Background Animated Particles -->
  <circle cx="150" cy="480" r="2" fill="#22D3EE" opacity="0.4">
    <animate attributeName="cy" values="480; 80" dur="12s" repeatCount="indefinite"/>
    <animate attributeName="cx" values="150; 170; 150" dur="6s" repeatCount="indefinite"/>
    <animate attributeName="opacity" values="0; 0.7; 0" dur="12s" repeatCount="indefinite"/>
  </circle>
  <circle cx="350" cy="520" r="1.5" fill="#7C3AED" opacity="0.3">
    <animate attributeName="cy" values="520; 120" dur="15s" repeatCount="indefinite"/>
    <animate attributeName="cx" values="350; 330; 350" dur="8s" repeatCount="indefinite"/>
    <animate attributeName="opacity" values="0; 0.6; 0" dur="15s" repeatCount="indefinite"/>
  </circle>
  <circle cx="700" cy="500" r="2.5" fill="#10B981" opacity="0.4">
    <animate attributeName="cy" values="500; 100" dur="11s" repeatCount="indefinite"/>
    <animate attributeName="cx" values="700; 730; 700" dur="5s" repeatCount="indefinite"/>
    <animate attributeName="opacity" values="0; 0.8; 0" dur="11s" repeatCount="indefinite"/>
  </circle>

  <!-- ==================== LEFT PANEL (ASCII PORTRAIT) ==================== -->
  <!-- Glass Panel Shadow/Blur -->
  <rect x="40" y="40" width="410" height="530" rx="16" fill="#000000" fill-opacity="0.4" filter="url(#glassBlur)"/>
  <!-- Glass Panel Body -->
  <rect x="40" y="40" width="410" height="530" rx="16" fill="#0F172A" fill-opacity="0.65" stroke="url(#borderGrad)" stroke-width="1.5"/>

  <!-- Left Panel Scanline -->
  <rect x="40" y="40" width="410" height="120" fill="url(#scanlineGrad)" clip-path="url(#leftPanelClip)" pointer-events="none">
    <animate attributeName="y" values="40; 570" dur="5s" repeatCount="indefinite"/>
  </rect>

  <!-- Left Panel Header Details -->
  <text x="70" y="75" class="font-mono" font-size="12" fill="#94A3B8" font-weight="600" letter-spacing="1">SYSTEM_STATUS: ACTIVE</text>
  <circle cx="390" cy="71" r="5" fill="#10B981">
    <animate attributeName="opacity" values="1; 0.3; 1" dur="2s" repeatCount="indefinite"/>
  </circle>

  <!-- Divider Frame -->
  <rect x="70" y="105" width="350" height="1" fill="rgba(255,255,255,0.08)" />

  <!-- Floating Glowing ASCII Portrait -->
  <g clip-path="url(#leftPanelClip)">
    <g filter="url(#asciiGlow)">
      <animateTransform attributeName="transform" type="translate" values="0,0; 0,-6; 0,0" dur="6s" repeatCount="indefinite" additive="sum"/>
      
      <!-- High Density ASCII Portrait Render of Nilesh's Face -->
      <g clip-path="url(#asciiClip)">
        <text x="80" y="140" class="font-mono" font-size="8.2" fill="url(#asciiGrad)" xml:space="preserve" font-weight="bold" letter-spacing="1.2">
          <tspan x="80" dy="0">:,,;itL1LCttCt;,:i:,:::,i1;:i88i,,,:;i1tL1</tspan>
          <tspan x="80" dy="11">Ci:,i8@8G00GLCCCGt;iCCLtCLtt1CG;::itt1t1;:</tspan>
          <tspan x="80" dy="11">@8L1t880G0@0G@@@@8LLCGGLCCCCGGCLGG00CCt::;</tspan>
          <tspan x="80" dy="11">@@8@8GLC8@@0LLG000GCCG0GGG08@@808GGCCLtttt</tspan>
          <tspan x="80" dy="11">0880GGGG8@8GGGGGGGLtL088GC0@@@@GCCCCGCtLtC</tspan>
          <tspan x="80" dy="11">000CC08@0LGGG0GCC0L1ttLCCGLLCCCG0@@@0LtCGG</tspan>
          <tspan x="80" dy="11">8808@88GLLGCCG0GGLL0G080GLtL@GCG@0GGGG000G</tspan>
          <tspan x="80" dy="11">8@@@@88@0@@@@8@@CtLGG@@@888G@@@GCC8@@0CLG0</tspan>
          <tspan x="80" dy="11">@@800@@@@@@@@@@@@@@808@@8@@080@@@@@8CCCC8G</tspan>
          <tspan x="80" dy="11">0@@@88@@@@@@@@@@@@@@@@@@@@@8888GLLL1t8@@0C</tspan>
          <tspan x="80" dy="11">88@@0tGG8@@@@@@888@@@@@@@@@CC8@80G8GL0@@@@</tspan>
          <tspan x="80" dy="11">000GG888@@@@@@@@@@@@@@@@@@0C00088G808@@@@@</tspan>
          <tspan x="80" dy="11">8GLLG0@@@@8t111LLL11tC@@@0i1ttG@@08@@@@@@@</tspan>
          <tspan x="80" dy="11">8@@@8G@@@8;,,,,,,,,,,,t@@GiG00@@8G0@0GC0@@</tspan>
          <tspan x="80" dy="11">@@8GG0@@@8;,,,,,::,,,:t@@@G8@@@80GLL@@@@@8</tspan>
          <tspan x="80" dy="11">@@008@@@@i,:;;;:,,::::t0@8@@@C1i1CG00@@@@@</tspan>
          <tspan x="80" dy="11">@@@@@@CC0tLLC0801CLLG8088t0@@0881G@0tL@@@@</tspan>
          <tspan x="80" dy="11">8@Ct@@iiLLC;ii;ttCi;1LC08GL8@@@@@G11itGG1C</tspan>
          <tspan x="80" dy="11">ti,:8@G,t;1:,,:1,;i,,,;G0tiL1LiiGGi,,0@C:i</tspan>
          <tspan x="80" dy="11">::::G88tLL:11ii1;iL1iiL@8i,:,;,,,81,,::,,:</tspan>
          <tspan x="80" dy="11">00:,8@@@881:;1itLGCt:;0@C:::iti::G1:;1iitG</tspan>
          <tspan x="80" dy="11">CC:,L0L8C00L;;i;;i11iG88L,,C1LCLCGGGG000G0</tspan>
          <tspan x="80" dy="11">,,,,,,:,,i@@8Ciii1tC@@1,::ittLi:::,:,,,,,,</tspan>
          <tspan x="80" dy="11">::,,::,:;,;0@@0LtC8@@@L,,:::CCi,,,,,,::,::</tspan>
        </text>
      </g>
    </g>
  </g>

  <!-- Blinking Cursor following reveal -->
  <rect x="360" y="390" width="8" height="11" fill="#22D3EE" opacity="1">
    <animate attributeName="y" values="135; 146; 157; 168; 179; 190; 201; 212; 223; 234; 245; 256; 267; 278; 289; 300; 311; 322; 333; 344; 355; 366; 377; 388"
             keyTimes="0; 0.04; 0.08; 0.12; 0.16; 0.20; 0.24; 0.28; 0.32; 0.36; 0.40; 0.44; 0.48; 0.52; 0.56; 0.60; 0.64; 0.68; 0.72; 0.76; 0.80; 0.84; 0.88; 1"
             dur="2.4s" begin="0.6s" fill="freeze" calcMode="discrete"/>
    <animate attributeName="opacity" values="1; 0; 1" dur="0.8s" repeatCount="indefinite"/>
    <animate attributeName="visibility" values="visible; hidden" dur="0.1s" begin="3.0s" fill="freeze"/>
  </rect>

  <text x="245" y="470" class="font-mono" font-size="16" fill="#F8FAFC" font-weight="700" text-anchor="middle" letter-spacing="2">@Nilesh10032007</text>
  <text x="245" y="495" class="font-mono" font-size="12" fill="#94A3B8" text-anchor="middle">CRITICAL_NODE_SECURE</text>

  <!-- ==================== RIGHT PANEL (TERMINAL WINDOW) ==================== -->
  <!-- Glass Panel Shadow/Blur -->
  <rect x="480" y="40" width="660" height="530" rx="16" fill="#000000" fill-opacity="0.4" filter="url(#glassBlur)"/>
  <!-- Glass Panel Body -->
  <rect x="480" y="40" width="660" height="530" rx="16" fill="#0F172A" fill-opacity="0.65" stroke="url(#borderGrad)" stroke-width="1.5"/>

  <!-- Right Panel Scanline -->
  <rect x="480" y="40" width="660" height="150" fill="url(#scanlineGrad)" clip-path="url(#rightPanelClip)" pointer-events="none">
    <animate attributeName="y" values="40; 570" dur="6s" repeatCount="indefinite"/>
  </rect>

  <!-- Mac style window buttons -->
  <circle cx="510" cy="65" r="6" fill="#EF4444"/>
  <circle cx="530" cy="65" r="6" fill="#F59E0B"/>
  <circle cx="550" cy="65" r="6" fill="#10B981"/>
  <text x="610" y="70" class="font-mono" font-size="12" fill="#94A3B8" font-weight="600">nilesh@developer:~</text>
  
  <line x1="480" y1="90" x2="1140" y2="90" stroke="rgba(255,255,255,0.08)" stroke-width="1"/>

  <!-- Terminal Content -->
  
  <!-- 1. GREETING (Types in) -->
  <g clip-path="url(#greetingClip)">
    <text x="520" y="135" class="font-mono" font-size="22" fill="#F8FAFC" font-weight="bold">Hi 👋 I'm Nilesh</text>
  </g>
  <!-- Greeting Cursor -->
  <rect x="520" y="115" width="8" height="22" fill="#22D3EE">
    <animate attributeName="x" values="520; 720" dur="1.2s" begin="0.4s" fill="freeze"/>
    <animate attributeName="opacity" values="1;0;1" dur="0.8s" repeatCount="indefinite"/>
    <animate attributeName="visibility" values="visible;hidden" dur="0.1s" begin="1.6s" fill="freeze"/>
  </rect>

  <!-- 2. TYPING ROLES LOOP -->
  <text x="520" y="180" class="font-mono" font-size="18" fill="#94A3B8" font-weight="bold">> </text>
  
  <g class="font-mono" font-size="17" font-weight="700">
    <text x="542" y="180" fill="#7C3AED" clip-path="url(#role1Clip)">Frontend Engineer</text>
    <text x="542" y="180" fill="#22D3EE" clip-path="url(#role2Clip)">Full Stack Developer</text>
    <text x="542" y="180" fill="#10B981" clip-path="url(#role3Clip)">Open Source Contributor</text>
    <text x="542" y="180" fill="#F43F5E" clip-path="url(#role4Clip)">UI Engineer</text>
    <text x="542" y="180" fill="#EAB308" clip-path="url(#role5Clip)">AI Enthusiast</text>
  </g>

  <!-- Moving cursors for roles -->
  <rect x="542" y="163" width="6" height="20" fill="#7C3AED">
    <animate attributeName="x" values="542; 730; 730; 542; 542" keyTimes="0; 0.05; 0.15; 0.175; 1" dur="20s" repeatCount="indefinite"/>
    <animate attributeName="opacity" values="1; 1; 1; 0; 0" keyTimes="0; 0.05; 0.15; 0.175; 1" dur="20s" repeatCount="indefinite"/>
    <animate attributeName="visibility" values="visible; hidden; visible" dur="0.8s" repeatCount="indefinite"/>
  </rect>
  <rect x="542" y="163" width="6" height="20" fill="#22D3EE">
    <animate attributeName="x" values="542; 542; 750; 750; 542; 542" keyTimes="0; 0.2; 0.25; 0.35; 0.375; 1" dur="20s" repeatCount="indefinite"/>
    <animate attributeName="opacity" values="0; 1; 1; 1; 0; 0" keyTimes="0; 0.2; 0.25; 0.35; 0.375; 1" dur="20s" repeatCount="indefinite"/>
    <animate attributeName="visibility" values="visible; hidden; visible" dur="0.8s" repeatCount="indefinite"/>
  </rect>
  <rect x="542" y="163" width="6" height="20" fill="#10B981">
    <animate attributeName="x" values="542; 542; 785; 785; 542; 542" keyTimes="0; 0.4; 0.45; 0.55; 0.575; 1" dur="20s" repeatCount="indefinite"/>
    <animate attributeName="opacity" values="0; 1; 1; 1; 0; 0" keyTimes="0; 0.4; 0.45; 0.55; 0.575; 1" dur="20s" repeatCount="indefinite"/>
    <animate attributeName="visibility" values="visible; hidden; visible" dur="0.8s" repeatCount="indefinite"/>
  </rect>
  <rect x="542" y="163" width="6" height="20" fill="#F43F5E">
    <animate attributeName="x" values="542; 542; 670; 670; 542; 542" keyTimes="0; 0.6; 0.65; 0.75; 0.775; 1" dur="20s" repeatCount="indefinite"/>
    <animate attributeName="opacity" values="0; 1; 1; 1; 0; 0" keyTimes="0; 0.6; 0.65; 0.75; 0.775; 1" dur="20s" repeatCount="indefinite"/>
    <animate attributeName="visibility" values="visible; hidden; visible" dur="0.8s" repeatCount="indefinite"/>
  </rect>
  <rect x="542" y="163" width="6" height="20" fill="#EAB308">
    <animate attributeName="x" values="542; 542; 685; 685; 542; 542" keyTimes="0; 0.8; 0.85; 0.95; 0.975; 1" dur="20s" repeatCount="indefinite"/>
    <animate attributeName="opacity" values="0; 1; 1; 1; 0; 0" keyTimes="0; 0.8; 0.85; 0.95; 0.975; 1" dur="20s" repeatCount="indefinite"/>
    <animate attributeName="visibility" values="visible; hidden; visible" dur="0.8s" repeatCount="indefinite"/>
  </rect>

  <!-- 3. PERSONAL DETAILS (Sequential fade & slide reveal) -->
  <!-- Row 1: Location -->
  <g class="font-mono" font-size="14" opacity="0">
    <animate attributeName="opacity" values="0; 1" dur="0.4s" begin="1.8s" fill="freeze"/>
    <animateTransform attributeName="transform" type="translate" values="0, 8; 0, 0" dur="0.4s" begin="1.8s" fill="freeze"/>
    <text x="520" y="222" fill="#22D3EE">📍 Location:</text>
    <text x="660" y="222" fill="#94A3B8">Mumbai, India</text>
  </g>

  <!-- Row 2: Education -->
  <g class="font-mono" font-size="14" opacity="0">
    <animate attributeName="opacity" values="0; 1" dur="0.4s" begin="2.0s" fill="freeze"/>
    <animateTransform attributeName="transform" type="translate" values="0, 8; 0, 0" dur="0.4s" begin="2.0s" fill="freeze"/>
    <text x="520" y="250" fill="#7C3AED">🎓 Education:</text>
    <text x="660" y="250" fill="#94A3B8">Computer Science Student</text>
  </g>

  <!-- Row 3: Current Focus -->
  <g class="font-mono" font-size="14" opacity="0">
    <animate attributeName="opacity" values="0; 1" dur="0.4s" begin="2.2s" fill="freeze"/>
    <animateTransform attributeName="transform" type="translate" values="0, 8; 0, 0" dur="0.4s" begin="2.2s" fill="freeze"/>
    <text x="520" y="278" fill="#10B981">🚀 Focus:</text>
    <text x="660" y="278" fill="#94A3B8">Full-Stack Dev &amp; AI Tech</text>
  </g>

  <!-- Row 4: Portfolio -->
  <g class="font-mono" font-size="14" opacity="0">
    <animate attributeName="opacity" values="0; 1" dur="0.4s" begin="2.4s" fill="freeze"/>
    <animateTransform attributeName="transform" type="translate" values="0, 8; 0, 0" dur="0.4s" begin="2.4s" fill="freeze"/>
    <text x="520" y="306" fill="#F43F5E">🔗 Portfolio:</text>
    <text x="660" y="306" fill="#94A3B8">nilesh.dev</text>
  </g>

  <!-- Row 5: Email -->
  <g class="font-mono" font-size="14" opacity="0">
    <animate attributeName="opacity" values="0; 1" dur="0.4s" begin="2.6s" fill="freeze"/>
    <animateTransform attributeName="transform" type="translate" values="0, 8; 0, 0" dur="0.4s" begin="2.6s" fill="freeze"/>
    <text x="520" y="334" fill="#EAB308">📧 Email:</text>
    <text x="660" y="334" fill="#94A3B8">contact@nilesh.dev</text>
  </g>

  <!-- Divider -->
  <line x1="520" y1="365" x2="1100" y2="365" stroke="rgba(255,255,255,0.06)" stroke-width="1"/>

  <!-- 4. SKILLS SECTION -->
  <g class="font-mono" font-size="13" opacity="0">
    <animate attributeName="opacity" values="0; 1" dur="0.5s" begin="2.9s" fill="freeze"/>
    <text x="520" y="392" fill="#94A3B8" font-weight="bold">// SKILLS &amp; TECHNOLOGIES</text>
  </g>

  <!-- Skills Row 1 (Fade & Slide in) -->
  <g opacity="0">
    <animate attributeName="opacity" values="0; 1" dur="0.5s" begin="3.1s" fill="freeze"/>
    <animateTransform attributeName="transform" type="translate" values="0, 10; 0, 0" dur="0.5s" begin="3.1s" fill="freeze"/>
    
    <!-- React -->
    <g class="pill" style="--pill-glow: rgba(34, 211, 238, 0.4);">
      <rect x="520" y="410" width="70" height="28" rx="8" fill="#1E293B" stroke="rgba(255,255,255,0.06)" stroke-width="1"/>
      <text x="555" y="428" class="font-mono" font-size="12" fill="#22D3EE" font-weight="bold" text-anchor="middle">React</text>
    </g>
    <!-- Next.js -->
    <g class="pill" style="--pill-glow: rgba(255, 255, 255, 0.4);">
      <rect x="600" y="410" width="80" height="28" rx="8" fill="#1E293B" stroke="rgba(255,255,255,0.06)" stroke-width="1"/>
      <text x="640" y="428" class="font-mono" font-size="12" fill="#F8FAFC" font-weight="bold" text-anchor="middle">Next.js</text>
    </g>
    <!-- Node.js -->
    <g class="pill" style="--pill-glow: rgba(16, 185, 129, 0.4);">
      <rect x="690" y="410" width="80" height="28" rx="8" fill="#1E293B" stroke="rgba(255,255,255,0.06)" stroke-width="1"/>
      <text x="730" y="428" class="font-mono" font-size="12" fill="#10B981" font-weight="bold" text-anchor="middle">Node.js</text>
    </g>
    <!-- TypeScript -->
    <g class="pill" style="--pill-glow: rgba(59, 130, 246, 0.4);">
      <rect x="780" y="410" width="105" height="28" rx="8" fill="#1E293B" stroke="rgba(255,255,255,0.06)" stroke-width="1"/>
      <text x="832.5" y="428" class="font-mono" font-size="12" fill="#3B82F6" font-weight="bold" text-anchor="middle">TypeScript</text>
    </g>
    <!-- Tailwind -->
    <g class="pill" style="--pill-glow: rgba(6, 182, 212, 0.4);">
      <rect x="895" y="410" width="85" height="28" rx="8" fill="#1E293B" stroke="rgba(255,255,255,0.06)" stroke-width="1"/>
      <text x="937.5" y="428" class="font-mono" font-size="12" fill="#06B6D4" font-weight="bold" text-anchor="middle">Tailwind</text>
    </g>
    <!-- Python -->
    <g class="pill" style="--pill-glow: rgba(234, 179, 8, 0.4);">
      <rect x="990" y="410" width="75" height="28" rx="8" fill="#1E293B" stroke="rgba(255,255,255,0.06)" stroke-width="1"/>
      <text x="1027.5" y="428" class="font-mono" font-size="12" fill="#EAB308" font-weight="bold" text-anchor="middle">Python</text>
    </g>
  </g>

  <!-- Skills Row 2 (Fade & Slide in) -->
  <g opacity="0">
    <animate attributeName="opacity" values="0; 1" dur="0.5s" begin="3.3s" fill="freeze"/>
    <animateTransform attributeName="transform" type="translate" values="0, 10; 0, 0" dur="0.5s" begin="3.3s" fill="freeze"/>
    
    <!-- Docker -->
    <g class="pill" style="--pill-glow: rgba(37, 99, 235, 0.4);">
      <rect x="520" y="450" width="80" height="28" rx="8" fill="#1E293B" stroke="rgba(255,255,255,0.06)" stroke-width="1"/>
      <text x="560" y="468" class="font-mono" font-size="12" fill="#2563EB" font-weight="bold" text-anchor="middle">Docker</text>
    </g>
    <!-- Postgres -->
    <g class="pill" style="--pill-glow: rgba(51, 102, 153, 0.4);">
      <rect x="610" y="450" width="90" height="28" rx="8" fill="#1E293B" stroke="rgba(255,255,255,0.06)" stroke-width="1"/>
      <text x="655" y="468" class="font-mono" font-size="12" fill="#336699" font-weight="bold" text-anchor="middle">Postgres</text>
    </g>
    <!-- AWS -->
    <g class="pill" style="--pill-glow: rgba(255, 153, 0, 0.4);">
      <rect x="710" y="450" width="60" height="28" rx="8" fill="#1E293B" stroke="rgba(255,255,255,0.06)" stroke-width="1"/>
      <text x="740" y="468" class="font-mono" font-size="12" fill="#FF9900" font-weight="bold" text-anchor="middle">AWS</text>
    </g>
    <!-- Git -->
    <g class="pill" style="--pill-glow: rgba(240, 80, 51, 0.4);">
      <rect x="780" y="450" width="55" height="28" rx="8" fill="#1E293B" stroke="rgba(255,255,255,0.06)" stroke-width="1"/>
      <text x="807.5" y="468" class="font-mono" font-size="12" fill="#F05033" font-weight="bold" text-anchor="middle">Git</text>
    </g>
    <!-- Figma -->
    <g class="pill" style="--pill-glow: rgba(242, 78, 30, 0.4);">
      <rect x="845" y="450" width="70" height="28" rx="8" fill="#1E293B" stroke="rgba(255,255,255,0.06)" stroke-width="1"/>
      <text x="880" y="468" class="font-mono" font-size="12" fill="#F24E1E" font-weight="bold" text-anchor="middle">Figma</text>
    </g>
  </g>

  <!-- Divider -->
  <line x1="520" y1="500" x2="1100" y2="500" stroke="rgba(255,255,255,0.06)" stroke-width="1"/>

  <!-- 5. SOCIAL MEDIA ICONS -->
  <g opacity="0">
    <animate attributeName="opacity" values="0; 1" dur="0.5s" begin="3.6s" fill="freeze"/>
    
    <!-- GitHub -->
    <a href="https://github.com/Nilesh10032007" target="_blank">
      <g class="social-icon">
        <rect x="520" y="515" width="30" height="30" rx="8" fill="rgba(255,255,255,0.03)"/>
        <path d="M535 520c-4.42 0-8 3.58-8 8 0 3.54 2.29 6.53 5.47 7.59.4.07.55-.17.55-.38 0-.19-.01-.82-.01-1.49-2.01.37-2.53-.49-2.69-.94-.09-.23-.48-.94-.82-1.13-.28-.15-.68-.52-.01-.53.63-.01 1.08.58 1.23.82.72 1.21 1.87.87 2.33.66.07-.52.28-.87.51-1.07-1.78-.2-3.64-.89-3.64-3.95 0-.87.31-1.59.82-2.15-.08-.2-.36-1.02.08-2.12 0 0 .67-.21 2.2.82.64-.18 1.32-.27 2-.27.68 0 1.36.09 2 .27 1.53-1.04 2.2-.82 2.2-.82.44 1.1.16 1.92.08 2.12.51.56.82 1.27.82 2.15 0 3.07-1.87 3.75-3.65 3.95.29.25.54.73.54 1.48 0 1.07-.01 1.93-.01 2.2 0 .21.15.46.55.38A8.013 8.013 0 00543 528c0-4.42-3.58-8-8-8z" fill="#94A3B8"/>
      </g>
    </a>

    <!-- LinkedIn -->
    <a href="https://linkedin.com" target="_blank">
      <g class="social-icon">
        <rect x="565" y="515" width="30" height="30" rx="8" fill="rgba(255,255,255,0.03)"/>
        <path d="M576.5 523c-1.1 0-2 .9-2 2s.9 2 2 2 2-.9 2-2-.9-2-2-2zm-1.5 5h3v7h-3v-7zm8 0h-3v7h3v-3.5c0-1.8.7-2.5 1.8-2.5 1 0 1.2.7 1.2 1.7V535h3v-4.2c0-2.3-1.2-3.8-3.2-3.8-1.6 0-2.4.9-2.8 1.5h-.1l-.1-.8h-2.8c0 .8.1 2.3.1 7.3h3.1v-7z" fill="#94A3B8"/>
      </g>
    </a>

    <!-- Twitter / X -->
    <a href="https://twitter.com" target="_blank">
      <g class="social-icon">
        <rect x="610" y="515" width="30" height="30" rx="8" fill="rgba(255,255,255,0.03)"/>
        <path d="M628.75 522.25h1.65l-3.61 4.13 4.25 5.62h-3.32l-2.6-3.41-2.98 3.41h-1.65l3.86-4.42-4.1-5.33h3.41l2.36 3.12zm-.58 8.76h.91l-5.75-7.62h-.98z" fill="#94A3B8"/>
      </g>
    </a>

    <!-- Portfolio Link -->
    <a href="https://nilesh.dev" target="_blank">
      <g class="social-icon">
        <rect x="655" y="515" width="30" height="30" rx="8" fill="rgba(255,255,255,0.03)"/>
        <path d="M670 523c-2.76 0-5 2.24-5 5s2.24 5 5 5 5-2.24 5-5-2.24-5-5-5zm-.5 8.96v-1.46c-.7-.07-1.3-.4-1.7-.9l1.1-1.1c.3.3.6.4.9.4.5 0 .8-.3.8-.8v-.1h-1v-1.5h1.5v-.5c0-.6-.4-1-1-1h-.5v.5h-1v-1.3l1.8-1.8v1.1h1.5v-1c1.3.5 2.2 1.8 2.2 3.3 0 1-.4 1.9-1.1 2.6-.2-.3-.6-.6-1-.6z" fill="#94A3B8"/>
      </g>
    </a>
  </g>

</svg>
